<?xml version="1.0" encoding="UTF-8" standalone="no"?>
<svg
   xmlns:dc="http://purl.org/dc/elements/1.1/"
   xmlns:cc="http://creativecommons.org/ns#"
   xmlns:rdf="http://www.w3.org/1999/02/22-rdf-syntax-ns#"
   xmlns:svg="http://www.w3.org/2000/svg"
   xmlns="http://www.w3.org/2000/svg"
   id="svg5346"
   version="1.1"
   viewBox="0 0 26.458333 26.458334"
   height="100"
   width="100">
  <defs
     id="defs5340">
    <clipPath
       id="clipPath742"
       clipPathUnits="userSpaceOnUse">
      <path
         id="path740"
         d="M 29.173,29.173 H 278.622 V 207.756 H 29.173 Z" />
    </clipPath>
  </defs>
  <metadata
     id="metadata5343">
    <rdf:RDF>
      <cc:Work
         rdf:about="">
        <dc:format>image/svg+xml</dc:format>
        <dc:type
           rdf:resource="http://purl.org/dc/dcmitype/StillImage" />
        <dc:title></dc:title>
      </cc:Work>
    </rdf:RDF>
  </metadata>
  <g
     transform="translate(0,-270.54165)"
     id="layer1">
    <g
       transform="matrix(2.9010058,0,0,-2.9010376,-697.77428,677.77828)"
       id="g736">
      <g
         clip-path="url(#clipPath742)"
         id="g738">
        <g
           transform="translate(241.5369,135.8157)"
           id="g744">
          <path
             id="path746"
             style="fill:#ffffff;fill-opacity:1;fill-rule:nonzero;stroke:none"
             d="M 0,0 C 0,1.962 1.59,3.552 3.552,3.552 5.514,3.552 7.103,1.962 7.103,0 7.103,-1.962 5.514,-3.551 3.552,-3.551 1.59,-3.551 0,-1.962 0,0 M 0.927,0 C 0.929,-1.45 2.102,-2.622 3.552,-2.625 5.001,-2.622 6.174,-1.45 6.177,0 6.174,1.45 5.001,2.623 3.552,2.625 2.102,2.623 0.929,1.45 0.927,0" />
        </g>
        <g
           transform="translate(246.2188,135.2102)"
           id="g748">
          <path
             id="path750"
             style="fill:#ffffff;fill-opacity:1;fill-rule:nonzero;stroke:none"
             d="m 0,0 h -0.524 v -0.524 c 0,-0.162 -0.063,-0.314 -0.178,-0.429 -0.115,-0.115 -0.266,-0.178 -0.428,-0.178 -0.162,0 -0.314,0.064 -0.429,0.178 -0.114,0.115 -0.177,0.267 -0.177,0.429 V 0 H -2.26 c -0.162,0 -0.314,0.063 -0.429,0.177 -0.114,0.115 -0.178,0.267 -0.178,0.429 0,0.162 0.064,0.314 0.178,0.429 0.115,0.114 0.267,0.177 0.429,0.177 h 0.524 v 0.524 c 0,0.162 0.063,0.314 0.177,0.429 0.115,0.114 0.267,0.177 0.429,0.177 0.162,0 0.313,-0.063 0.428,-0.177 0.114,-0.115 0.178,-0.267 0.178,-0.429 V 1.212 H 0 C 0.162,1.212 0.314,1.149 0.428,1.035 0.543,0.92 0.606,0.768 0.606,0.606 0.606,0.444 0.543,0.292 0.428,0.177 0.314,0.063 0.162,0 0,0" />
        </g>
        <g
           transform="translate(241.7874,136.3386)"
           id="g752">
          <path
             id="path754"
             style="fill:#ffffff;fill-opacity:1;fill-rule:nonzero;stroke:none"
             d="m 0,0 h -0.736 c -0.14,0 -0.271,-0.054 -0.37,-0.153 -0.099,-0.099 -0.153,-0.23 -0.153,-0.369 0,-0.14 0.054,-0.271 0.153,-0.37 0.099,-0.099 0.23,-0.153 0.37,-0.153 H 0 Z" />
        </g>
        <g
           transform="translate(248.3898,136.3386)"
           id="g756">
          <path
             id="path758"
             style="fill:#ffffff;fill-opacity:1;fill-rule:nonzero;stroke:none"
             d="m 0,0 h 0.736 c 0.14,0 0.271,-0.054 0.37,-0.153 0.099,-0.099 0.153,-0.23 0.153,-0.369 0,-0.14 -0.054,-0.271 -0.153,-0.37 -0.099,-0.099 -0.23,-0.153 -0.37,-0.153 H 0 Z" />
        </g>
        <g
           transform="translate(244.566,132.5149)"
           id="g760">
          <path
             id="path762"
             style="fill:#ffffff;fill-opacity:1;fill-rule:nonzero;stroke:none"
             d="m 0,0 v -0.736 c 0,-0.14 0.054,-0.271 0.153,-0.37 0.099,-0.099 0.23,-0.153 0.37,-0.153 0.139,0 0.27,0.054 0.369,0.153 0.099,0.099 0.153,0.23 0.153,0.37 V 0 Z" />
        </g>
        <g
           transform="translate(244.566,139.1172)"
           id="g764">
          <path
             id="path766"
             style="fill:#ffffff;fill-opacity:1;fill-rule:nonzero;stroke:none"
             d="m 0,0 v 0.736 c 0,0.14 0.054,0.271 0.153,0.37 0.099,0.099 0.23,0.153 0.37,0.153 0.139,0 0.27,-0.054 0.369,-0.153 0.099,-0.099 0.153,-0.23 0.153,-0.37 V 0 Z" />
        </g>
      </g>
    </g>
  </g>
</svg>
