<?xml version="1.0" encoding="UTF-8" standalone="no"?>
<svg
   xmlns:dc="http://purl.org/dc/elements/1.1/"
   xmlns:cc="http://creativecommons.org/ns#"
   xmlns:rdf="http://www.w3.org/1999/02/22-rdf-syntax-ns#"
   xmlns:svg="http://www.w3.org/2000/svg"
   xmlns="http://www.w3.org/2000/svg"
   id="svg864"
   version="1.1"
   viewBox="0 0 26.458333 26.458334"
   height="100"
   width="100">
  <defs
     id="defs858" />
  <metadata
     id="metadata861">
    <rdf:RDF>
      <cc:Work
         rdf:about="">
        <dc:format>image/svg+xml</dc:format>
        <dc:type
           rdf:resource="http://purl.org/dc/dcmitype/StillImage" />
        <dc:title></dc:title>
      </cc:Work>
    </rdf:RDF>
  </metadata>
  <g
     transform="translate(0,-270.54165)"
     id="layer1">
    <g
       transform="matrix(8.745336,0,0,8.745336,-30.146643,-2101.6268)"
       id="g1431">
      <g
         id="g1160"
         transform="matrix(0.35277777,0,0,-0.35277777,4.9698613,272.54862)">
        <path
           d="M 0,0 C 1.33,0 1.629,2.195 1.629,2.195 L 0,2.211 H -0.05 L -1.68,2.195 c 0,0 0.299,-2.195 1.63,-2.195 z"
           style="fill:#ffffff;fill-opacity:1;fill-rule:nonzero;stroke:none"
           id="path1162" />
      </g>
      <g
         id="g1164"
         transform="matrix(0.35277777,0,0,-0.35277777,4.9698263,273.90103)">
        <path
           d="M 0,0 1.963,0.017 C 1.963,0.017 1.33,1.21 0,1.21 h -0.05 c -1.331,0 -1.963,-1.193 -1.963,-1.193 L -0.05,0 Z"
           style="fill:#ffffff;fill-opacity:1;fill-rule:nonzero;stroke:none"
           id="path1166" />
      </g>
      <g
         id="g1168"
         transform="matrix(0.35277777,0,0,-0.35277777,5.9914013,273.98746)">
        <path
           d="m 0,0 c -0.065,0.416 -0.499,2.825 -1.985,3.592 1.348,0.623 1.866,2.581 2.022,3.365 0.153,0.062 0.261,0.211 0.261,0.387 0,0.23 -0.187,0.417 -0.417,0.417 h -5.604 c -0.23,0 -0.417,-0.187 -0.417,-0.417 0,-0.176 0.109,-0.325 0.262,-0.387 0.152,-0.767 0.651,-2.661 1.936,-3.325 -1.657,-0.767 -2.059,-3.553 -2.077,-3.69 l -0.008,-0.056 c -0.069,-0.075 -0.113,-0.174 -0.113,-0.284 0,-0.23 0.187,-0.417 0.417,-0.417 h 5.604 c 0.23,0 0.417,0.187 0.417,0.417 C 0.298,-0.209 0.172,-0.051 0,0 m -5.359,6.927 h 4.876 C -0.687,6.005 -1.324,3.897 -2.879,3.897 h -0.084 c -1.554,0 -2.191,2.108 -2.396,3.03 m 2.311,-3.6 h 0.085 c 1.659,0 2.273,-2.403 2.431,-3.2 l -0.96,-0.108 h -3.027 l -0.96,0.108 c 0.158,0.797 0.772,3.2 2.431,3.2"
           style="fill:#ffffff;fill-opacity:1;fill-rule:nonzero;stroke:none"
           id="path1170" />
      </g>
    </g>
  </g>
</svg>
